<?xml version="1.0" encoding="UTF-8"?>
<svg version="1.1" xmlns="http://www.w3.org/2000/svg" width="126" height="128">
<path d="M0 0 C5.67200901 1.46815667 10.0605132 5.89266275 14.4296875 9.62890625 C15.38617188 10.43328125 16.34265625 11.23765625 17.328125 12.06640625 C23.79026475 17.71399057 29.23806414 23.80924769 34.4296875 30.62890625 C35.23148437 31.64210938 36.03328125 32.6553125 36.859375 33.69921875 C50.14931904 50.95068832 59.34536422 72.87712225 61.4296875 94.62890625 C61.53748535 95.65129395 61.53748535 95.65129395 61.64746094 96.69433594 C62.85960503 109.50284467 62.85960503 109.50284467 59.9453125 113.8359375 C57.52149974 115.56267629 55.21192399 116.56706865 52.4296875 117.62890625 C51.3159375 118.13292969 50.2021875 118.63695313 49.0546875 119.15625 C18.01328988 132.88087171 -18.4892407 132.18757355 -49.8984375 120.14453125 C-61.38831641 115.40190038 -61.38831641 115.40190038 -64.5703125 110.62890625 C-67.67784836 81.72159591 -54.12455318 51.5360741 -36.6015625 29.34765625 C-35.59570256 28.10437251 -34.58545796 26.86461996 -33.5703125 25.62890625 C-32.88582031 24.79552734 -32.88582031 24.79552734 -32.1875 23.9453125 C-25.23214244 15.62735565 -11.58398135 -0.31824125 0 0 Z M-21.5703125 22.62890625 C-29.575367 30.93532751 -36.96712225 40.54316381 -42.5703125 50.62890625 C-42.2403125 51.28890625 -41.9103125 51.94890625 -41.5703125 52.62890625 C-40.64992188 52.34015625 -39.72953125 52.05140625 -38.78125 51.75390625 C-19.26180721 46.02926315 -5.30881904 49.30615008 12.4296875 58.62890625 C15.21459862 60.07989058 18.00782152 61.51363092 20.8046875 62.94140625 C21.76701294 63.44740356 21.76701294 63.44740356 22.7487793 63.96362305 C28.68556994 66.99522462 34.66688251 68.96524391 41.4296875 68.75390625 C42.1928125 68.73585937 42.9559375 68.7178125 43.7421875 68.69921875 C44.2990625 68.67601562 44.8559375 68.6528125 45.4296875 68.62890625 C46.22348071 66.32866993 46.55856386 65.03700618 45.81567383 62.68457031 C45.46786865 62.01135742 45.12006348 61.33814453 44.76171875 60.64453125 C44.36952148 59.88229248 43.97732422 59.12005371 43.57324219 58.3347168 C43.13399414 57.52429932 42.69474609 56.71388184 42.2421875 55.87890625 C41.5620459 54.61397339 41.5620459 54.61397339 40.86816406 53.32348633 C31.0781328 35.60113054 17.03509273 18.12694419 -0.5703125 7.62890625 C-6.96289168 7.62890625 -16.96584918 18.20816216 -21.5703125 22.62890625 Z M-48.5703125 63.62890625 C-49.87831918 66.19002641 -49.87831918 66.19002641 -50.5703125 68.62890625 C-49.97863281 68.49613281 -49.38695312 68.36335938 -48.77734375 68.2265625 C-47.98714844 68.04996094 -47.19695313 67.87335938 -46.3828125 67.69140625 C-45.60550781 67.51738281 -44.82820313 67.34335938 -44.02734375 67.1640625 C-43.21652344 66.98746094 -42.40570313 66.81085938 -41.5703125 66.62890625 C-40.75949219 66.4484375 -39.94867188 66.26796875 -39.11328125 66.08203125 C-22.07000338 63.04513381 -8.09296757 70.75309192 5.67578125 79.75 C16.71087397 86.89512123 28.6682829 91.78478436 41.9921875 91.75390625 C43.10722656 91.75648437 44.22226563 91.7590625 45.37109375 91.76171875 C48.62121351 91.72284775 48.62121351 91.72284775 52.4296875 90.62890625 C51.9346875 85.18390625 51.9346875 85.18390625 51.4296875 79.62890625 C50.26566406 79.68111328 50.26566406 79.68111328 49.078125 79.734375 C30.8047933 80.19229859 17.6038188 74.29640943 2.87988281 64.18164062 C-12.67532545 53.65022435 -32.75102023 51.92696402 -48.5703125 63.62890625 Z M-53.5703125 78.62890625 C-55.34357343 81.16136147 -55.38800012 82.46882497 -55.5703125 85.62890625 C-54.6215625 85.46390625 -53.6728125 85.29890625 -52.6953125 85.12890625 C-35.22789163 82.69896262 -22.55736973 88.77551752 -8.8203125 99.00390625 C2.93431501 107.73198951 17.95564348 117.68082164 33.265625 117.05078125 C40.81143744 115.57975644 47.93023664 111.61720564 54.4296875 107.62890625 C54.4296875 105.97890625 54.4296875 104.32890625 54.4296875 102.62890625 C52.79 102.87640625 52.79 102.87640625 51.1171875 103.12890625 C27.98945017 105.88317269 8.69198563 96.4420348 -10.08081055 84.00878906 C-15.69473954 80.29405811 -20.94248246 77.15730671 -27.5703125 75.62890625 C-28.83875 75.28859375 -28.83875 75.28859375 -30.1328125 74.94140625 C-38.38423861 73.88353111 -46.02429222 74.90419923 -53.5703125 78.62890625 Z M-56.5703125 94.62890625 C-57.57528102 97.64381182 -57.67366553 99.67072317 -57.6328125 102.81640625 C-57.62378906 103.71746094 -57.61476563 104.61851563 -57.60546875 105.546875 C-57.59386719 106.23394531 -57.58226562 106.92101562 -57.5703125 107.62890625 C-38.14244467 118.16245334 -19.61676813 122.06983536 2.4296875 121.62890625 C-0.82838945 119.13835704 -4.18546733 116.81854302 -7.5703125 114.50390625 C-12.07254209 111.42037951 -16.43982282 108.21934329 -20.7578125 104.87890625 C-31.88760519 96.48762834 -42.62587904 92.03459305 -56.5703125 94.62890625 Z " fill="#7B61FF" transform="translate(64.5703125,-0.62890625)"/>
</svg>
