<?xml version="1.0" encoding="UTF-8"?>
<svg id="Layer_2" data-name="Layer 2" xmlns="http://www.w3.org/2000/svg" viewBox="0 0 2371.17 874.05">
  <defs>
    
  </defs>
  <g id="Layer_1-2" data-name="Layer 1">
    <g>
      <path class="cls-1" d="M1929.21.52c22.88-3.11,36.86,8.31,54.63,20.05,79.76,52.7,152.36,128.34,209.84,204.37,99.4,131.5,158.55,283.74,174.37,448.54,2.03,21.24,7.36,62.48-3.36,80.32-9.79,16.28-41.19,30.52-58.42,39.05-222.02,109.97-512.78,106.67-735.24-.35-33.32-16.03-66.08-26.43-65.35-69.28.74-43.78,7.44-89.05,15.21-132.05,36.81-203.62,154.47-392.01,311.11-524.73,17.92-15.19,76.84-63.14,97.22-65.92M1646.63,363.61c77.68-37.35,172.46-50.2,256.59-28.3,71.61,18.64,131.52,68.93,198.55,99.13,50.85,22.91,115.68,40.95,171.41,27.64,1.14-.27,2.23-.28,2.64-1.66,1.41-4.74-28.69-68.63-33.29-77.76-39.66-78.73-92.3-151.91-153.07-215.59-44.83-46.97-95-89.26-151.18-122.1-26.59,14.05-51.58,31.78-75,50.66-76.31,61.51-145.55,144.06-195.27,228.48-7.57,12.85-15.22,25.96-21.38,39.51M2316.01,612.44c-1.69-14.96-4.47-29.86-7.62-44.57-2.01-9.45-4.63-25-7.8-33.51-.45-1.2-.63-2.86-2.07-3.28-82.7,21.81-166.6,2.29-239.07-39.51-57.84-33.36-107.56-80.36-171.8-102.56-96.08-33.2-190.31-10.6-274.6,40.59l-17.28,43.65.52,1.58c62.18-28.36,129.51-41.74,197.61-29.15,90.73,16.76,159.2,80.94,238.68,122.56,72.12,37.76,161.52,64.8,243.71,53.71,13.48-1.82,26.84-5.27,39.73-9.53M2329.74,729.99l-1.93-34.27-1.57-2.46c-119.26,30.97-241.73-1.02-345.56-61.45-63.12-36.72-120.77-87.05-190.49-111.43-49.84-17.43-104.25-22.08-155.45-8.15-8.75,2.38-54.6,18.1-57.84,23.72l-11.81,45.43c-.49,2.2.99,1.65,2.51,1.43,19.37-2.79,38.27-8.69,58.38-10.5,157.28-14.18,241.58,99.94,365.98,166.88,56.31,30.3,118.73,52.44,182.75,58.86,54.69-15.1,106.05-39.95,155.03-68.06M1986.67,828.69c-35.89-14.73-69.35-36.13-100.96-58.47-72.96-51.56-141.41-121.56-234.45-133.15-32.05-3.99-63.74-2.56-94.71,6.72l-.88,1.23c-2.6,28.23-7.46,56.47-6.27,84.92,126.74,73.19,274.25,106.66,420.92,100.9l16.37-2.15Z"></path>
      <g>
        <g>
          <path class="cls-1" d="M1125.53,260.18v115.07h-529.83v50.97c0,36.14-8.89,63.88-26.66,83.13-17.72,19.3-43.66,28.89-77.78,28.89l-9.16-41.05h4.58c25.02,0,43.17-6,54.51-17.99,11.28-11.99,16.95-31.02,16.95-57.07v-87.92h529.83v-74.02h37.56Z"></path>
          <path class="cls-1" d="M816.76,422.91c3.88-4.06,8.7-6.08,14.45-6.08s10.65,2.03,14.7,6.08c4.06,4.06,6.08,8.95,6.08,14.7s-2.03,10.65-6.08,14.7c-4.06,4.06-8.96,6.08-14.7,6.08s-10.57-2.03-14.45-6.08c-3.89-4.06-5.83-8.96-5.83-14.7s1.94-10.65,5.83-14.7Z"></path>
          <path class="cls-1" d="M872.78,422.91c4.06-4.06,8.95-6.08,14.7-6.08s10.56,2.03,14.45,6.08c3.88,4.06,5.83,8.95,5.83,14.7s-1.95,10.65-5.83,14.7c-3.89,4.06-8.71,6.08-14.45,6.08s-10.65-2.03-14.7-6.08c-4.06-4.06-6.08-8.96-6.08-14.7s2.03-10.65,6.08-14.7Z"></path>
          <path class="cls-1" d="M1135.14,538.26l-9.13-41.07h4.56c25.01,0,43.18-6,54.5-18,11.32-12,16.99-31.02,16.99-57.04v-161.99h37.52v166.05c0,36.17-8.87,63.88-26.62,83.15-17.74,19.26-43.69,28.9-77.82,28.9ZM1220.83,221.12c-6.43,0-11.75-2.19-15.97-6.59-4.23-4.39-6.34-9.63-6.34-15.72s2.11-11.23,6.34-15.46c4.22-4.22,9.55-6.33,15.97-6.33s11.66,2.11,15.72,6.33c4.06,4.23,6.08,9.38,6.08,15.46s-2.12,11.33-6.34,15.72c-4.23,4.4-9.38,6.59-15.46,6.59Z"></path>
          <path class="cls-1" d="M1308.67,66.99l29.91,14.2-6.08,22.31h-69.97l5.07-22.31h37.01l-4.56-2.03c-17.92-8.11-26.87-18.08-26.87-29.91,0-18.25,12.5-27.38,37.52-27.38h20.28l-5.58,22.31h-12.67c-12.17,0-18.25,3.04-18.25,9.13,0,4.4,4.73,8.96,14.2,13.69ZM1316.27,375.25h-37.52V121.75h37.52v253.5Z"></path>
        </g>
        <g>
          <path class="cls-1" d="M26.94,783.58c-3.91,0-7.08,1.17-9.5,3.51-2.41,2.34-3.63,5.41-3.63,9.21s1.21,6.89,3.63,9.26c2.42,2.37,5.59,3.58,9.5,3.58h12.67l-3.22,13.7h-9.44c-7.75,0-14.18-2.52-19.28-7.55-5.11-5.03-7.66-11.34-7.66-18.94s2.55-13.91,7.66-18.94c5.1-5.03,11.53-7.55,19.28-7.55h41.11c-2-2.14-3.9-4.81-5.7-7.99-1.8-3.18-3.07-5.64-3.8-7.37-.73-1.73-1.82-4.52-3.28-8.36-1.62-4.29-2.98-7.63-4.09-10-1.11-2.39-2.4-4.53-3.86-6.44-1.46-1.93-3.03-3.25-4.72-3.97-1.69-.74-3.76-1.1-6.21-1.1-4.23,0-8.49,1.96-12.78,5.87v16.7h-13.71v-22.33c4.22-4.53,8.41-7.98,12.55-10.37,4.15-2.37,8.79-3.56,13.94-3.56,4.22,0,7.92.61,11.11,1.85,3.18,1.22,6,3.21,8.46,5.98,2.46,2.77,4.58,5.87,6.39,9.33,1.8,3.44,3.74,7.83,5.82,13.12,1.22,3.3,2.17,5.79,2.82,7.43.65,1.65,1.65,3.81,2.99,6.49,1.34,2.69,2.61,4.8,3.8,6.35,1.19,1.53,2.73,3.16,4.61,4.88,1.88,1.73,3.93,3.13,6.16,4.2l-3.34,13.02H26.94Z"></path>
          <path class="cls-1" d="M171.33,769.87v13.71h-12.78v2.98c0,10.6-3.44,19.28-10.31,26.09-6.86,6.79-15.56,10.19-26.08,10.19h-5.41l-3.45-13.7h8.87c6.91,0,12.39-2.06,16.47-6.16,4.06-4.1,6.1-9.58,6.1-16.42v-4.14c-1.15-.23-4.15-.73-8.97-1.5l-10.25-1.62c-10.59-1.68-18.04-6.02-22.33-13v-14.04c0-10.14,3.12-18.76,9.38-25.86,6.26-7.09,13.91-10.65,22.98-10.65,6.82,0,12.37,2.65,16.63,7.94,4.26,5.31,6.4,12.02,6.4,20.16v26.01h12.78ZM127.8,765.84c1.45.23,3.41.51,5.87.86s3.84.56,4.15.64c1.3.23,3.61.61,6.91,1.15v-24.64c0-4.45-.84-7.94-2.53-10.48-1.69-2.54-3.91-3.79-6.68-3.79-5.15,0-9.52,2.18-13.13,6.56-3.61,4.37-5.41,9.74-5.41,16.12v8.98c2.23,2.14,5.83,3.68,10.83,4.6Z"></path>
          <path class="cls-1" d="M264.58,769.87v13.71c-7.83,0-14.55-2.31-20.15-6.91-5.99,4.6-12.44,6.91-19.34,6.91-13.13-.23-23.69-3.46-31.66-9.68-5.83,6.44-13.24,9.68-22.23,9.68l-2.99-13.71h2.99c5.37,0,9.68-2.03,12.9-6.1s4.84-9.59,4.84-16.58v-4.37c0-9.36,2.37-17.03,7.14-22.98,4.76-5.95,11.01-8.92,18.77-8.92,10.37,0,19.11,4.05,26.26,12.15,7.14,8.09,10.71,17.98,10.71,29.65v12.08c1.23,1.53,2.99,2.77,5.3,3.69,2.3.92,4.8,1.37,7.48,1.37ZM237.98,764.11v-11.39c0-7.83-2.24-14.47-6.73-19.93-4.49-5.44-9.96-8.18-16.41-8.18-3.68,0-6.64,1.63-8.87,4.9-2.23,3.26-3.34,7.7-3.34,13.3v20.72c5.6,4.07,13.17,6.18,22.69,6.33,4.68-.07,8.9-1.99,12.66-5.75Z"></path>
          <path class="cls-1" d="M264.47,783.58l-2.65-13.71h20.38v-107.3l13.71-3.46c0,3.38.3,7.07.92,11.06.61,3.99,1.15,6.97,1.61,8.92.46,1.96.85,3.41,1.15,4.32l-3.68-.12v53.09c0,5.21-.27,9.59-.81,13.12,2.38-4.14,4.51-7.73,6.39-10.76,1.89-3.03,4.3-6.43,7.26-10.19,2.95-3.76,5.83-6.84,8.63-9.21,2.8-2.37,6.02-4.38,9.68-5.98,3.64-1.62,7.35-2.42,11.11-2.42,6.91,0,13.16,1.96,18.77,5.87,5.6,3.92,9.94,9.02,13.01,15.31,3.07,6.3,4.61,12.97,4.61,20.04v17.27c-3.38,4.29-8.29,7.73-14.74,10.3-6.45,2.57-13.66,3.86-21.65,3.86h-73.68ZM299.93,769.87h38.22c9.59,0,17.12-2.06,22.56-6.21v-11.5c0-7.22-2.14-13.61-6.44-19.17-4.3-5.57-9.68-8.36-16.12-8.36-2.3,0-4.59.51-6.85,1.5-2.27,1.01-4.32,2.24-6.16,3.74-1.84,1.5-3.76,3.46-5.75,5.87-1.99,2.42-3.73,4.76-5.18,7.02-1.46,2.27-3.07,5.01-4.84,8.24-1.76,3.21-3.22,6-4.37,8.34-1.15,2.34-2.5,5.18-4.03,8.47-.46.92-.81,1.62-1.04,2.06Z"></path>
          <path class="cls-1" d="M461.47,822.84c-13.2,0-24.2-4.38-32.99-13.14-8.79-8.74-13.18-19.76-13.18-33.03,0-10.29,1.65-20.16,4.95-29.6l13.7.23c-3.3,9.61-4.91,19.38-4.84,29.37,0,9.59,3.02,17.41,9.04,23.42,6.02,6.03,13.8,9.05,23.31,9.05,4.53,0,8.9-.54,13.13-1.62,4.22-1.09,7.85-2.39,10.88-3.92,3.03-1.53,6.07-3.51,9.1-5.93,3.03-2.41,5.41-4.5,7.14-6.26,1.72-1.76,3.7-3.84,5.93-6.21l-3.34-3.46c-1.15-.23-3.15-.58-5.98-1.04-2.84-.46-5.8-.92-8.87-1.38-10.67-1.76-18.11-6.1-22.33-13v-14.04c0-10.14,3.12-18.76,9.38-25.86,6.26-7.09,13.91-10.65,22.97-10.65,6.83,0,12.36,2.65,16.58,7.94,4.22,5.31,6.34,12.02,6.34,20.16v26.01h12.77v13.71h-12.77v5.64c-.39.38-1.46,1.6-3.22,3.63-1.77,2.03-3.25,3.71-4.43,5.01-1.19,1.3-3.02,3.12-5.47,5.41-2.46,2.31-4.74,4.22-6.85,5.77-2.12,1.53-4.78,3.25-8,5.18-3.22,1.91-6.41,3.44-9.56,4.6-3.15,1.15-6.77,2.11-10.88,2.88-4.1.76-8.27,1.15-12.49,1.15ZM508.67,768.5v-24.64c0-4.38-.84-7.85-2.53-10.42s-3.91-3.86-6.68-3.86c-5.14,0-9.54,2.18-13.18,6.56-3.65,4.37-5.47,9.74-5.47,16.12v8.98c2.31,2.06,5.95,3.61,10.94,4.6,1.46.23,3.42.51,5.88.86s3.8.56,4.03.64c.38.07,1.4.23,3.05.46s2.98.46,3.97.69ZM495.54,698.94c-1.38,1.38-3.12,2.08-5.23,2.08s-3.86-.69-5.24-2.08c-1.38-1.37-2.07-3.1-2.07-5.18s.68-3.79,2.07-5.18,3.13-2.08,5.24-2.08,3.86.69,5.23,2.08c1.38,1.38,2.08,3.1,2.08,5.18s-.69,3.81-2.08,5.18ZM513.28,698.94c-1.38,1.38-3.11,2.08-5.18,2.08s-3.8-.69-5.18-2.08c-1.38-1.37-2.08-3.1-2.08-5.18s.69-3.79,2.08-5.18c1.38-1.38,3.11-2.08,5.18-2.08s3.8.69,5.18,2.08c1.38,1.38,2.07,3.1,2.07,5.18s-.68,3.81-2.07,5.18Z"></path>
          <path class="cls-1" d="M539.87,783.58h-4.72l-3.68-13.71h8.41c9.82,0,18.65-1.14,26.48-3.44-6.6-4.53-11.47-9.91-14.62-16.12l-.69-3.12c0-12.28,2.88-22.22,8.64-29.82,5.76-7.6,13.36-11.39,22.8-11.39s17.04,3.77,22.8,11.34c5.75,7.55,8.63,17.52,8.63,29.87l-.68,3.12c-3,6.15-7.8,11.52-14.4,16.12,7.83,2.31,16.58,3.44,26.26,3.44v13.71c-15.67,0-29.78-2.51-42.38-7.48-12.74,4.98-27.01,7.48-42.83,7.48ZM582.7,761.13c8.22-4.15,14.05-9.33,17.5-15.54-.23-7.99-1.94-14.31-5.13-18.95-3.19-4.63-7.38-6.96-12.61-6.96s-9.3,2.34-12.49,7.02c-3.18,4.68-4.89,10.98-5.12,18.89,3.6,6.28,9.55,11.47,17.84,15.54ZM578.79,689.17c-1.38,1.38-3.12,2.06-5.23,2.06s-3.84-.68-5.18-2.06-2.02-3.13-2.02-5.24.68-3.84,2.02-5.18c1.34-1.35,3.07-2.03,5.18-2.03s3.86.68,5.23,2.03c1.38,1.34,2.08,3.07,2.08,5.18s-.69,3.86-2.08,5.24ZM596.52,689.17c-1.38,1.38-3.11,2.06-5.18,2.06s-3.8-.68-5.18-2.06c-1.38-1.38-2.07-3.13-2.07-5.24s.69-3.84,2.07-5.18c1.38-1.35,3.12-2.03,5.18-2.03s3.8.68,5.18,2.03c1.38,1.34,2.07,3.07,2.07,5.18s-.69,3.86-2.07,5.24Z"></path>
          <path class="cls-1" d="M624.96,783.58l-3.68-13.71h78.41c-2.08-2.14-4-4.75-5.76-7.83-1.76-3.07-3.05-5.57-3.86-7.53-.81-1.96-1.9-4.75-3.28-8.36-1.61-4.29-2.99-7.63-4.15-10-1.15-2.39-2.44-4.53-3.86-6.44-1.42-1.93-2.99-3.25-4.72-3.97-1.72-.74-3.78-1.1-6.16-1.1-4.22,0-8.48,1.96-12.78,5.87v16.7h-13.7v-22.33c4.22-4.53,8.38-7.98,12.49-10.37,4.11-2.37,8.77-3.56,13.99-3.56,8.06,0,14.35,2.37,18.88,7.14,4.53,4.76,8.83,12.51,12.9,23.26,1.46,3.84,2.66,6.87,3.63,9.1.96,2.23,2.27,4.7,3.91,7.43,1.65,2.72,3.51,5.06,5.59,7.02,2.07,1.94,4.48,3.63,7.25,4.99v13.71h-95.1Z"></path>
          <path class="cls-1" d="M728.47,783.58h-8.41l-3.68-13.71h12.09c9.51,0,17-2.03,22.45-6.1-1.15-24.79-2.73-43.4-4.72-55.84h13.71c1.15,7.83,2.2,17.82,3.16,29.95.96,12.11,1.55,22.6,1.78,31.43-3.53,4.45-8.55,7.94-15.08,10.47-6.53,2.54-13.62,3.81-21.3,3.81ZM745.74,691.11c-1.38,1.38-3.12,2.08-5.23,2.08s-3.86-.69-5.24-2.08c-1.38-1.37-2.08-3.12-2.08-5.22s.69-3.84,2.08-5.19c1.38-1.34,3.12-2.01,5.24-2.01s3.86.68,5.23,2.01c1.38,1.35,2.08,3.08,2.08,5.19s-.69,3.86-2.08,5.22ZM763.59,691.11c-1.38,1.38-3.13,2.08-5.24,2.08s-3.84-.69-5.18-2.08c-1.34-1.37-2.01-3.12-2.01-5.22s.67-3.84,2.01-5.19c1.34-1.34,3.07-2.01,5.18-2.01s3.86.68,5.24,2.01c1.38,1.35,2.07,3.08,2.07,5.19s-.69,3.86-2.07,5.22Z"></path>
          <path class="cls-1" d="M858,783.58c-14.66,0-26.54-3.15-35.63-9.44-9.1-6.3-14.22-15-15.37-26.14-1.08-8.75.38-18.72,4.38-29.93h13.81c-1.76,4.6-3.09,9.54-3.97,14.8-.88,5.26-1.1,9.76-.63,13.52.85,7.38,4.49,13.14,10.94,17.27,6.45,4.15,15.28,6.21,26.49,6.21,8.44,0,17.78-1.1,28.04-3.33,10.24-2.23,19.82-5.22,28.72-8.98-1.15-20.03-2.69-36.57-4.6-49.63h13.7c2.76,19.43,4.42,38.8,4.95,58.15-10.05,5.22-21.65,9.44-34.77,12.66-13.13,3.23-25.14,4.85-36.04,4.85ZM863.87,711.16c-1.38,1.38-3.12,2.08-5.23,2.08s-3.84-.69-5.18-2.08c-1.34-1.38-2.02-3.12-2.02-5.18s.68-3.81,2.02-5.19c1.34-1.38,3.07-2.08,5.18-2.08s3.86.69,5.23,2.08c1.38,1.38,2.08,3.12,2.08,5.19s-.69,3.79-2.08,5.18ZM881.6,711.16c-1.38,1.38-3.11,2.08-5.18,2.08s-3.8-.69-5.18-2.08c-1.38-1.38-2.07-3.12-2.07-5.18s.69-3.81,2.07-5.19c1.38-1.38,3.12-2.08,5.18-2.08s3.8.69,5.18,2.08c1.38,1.38,2.07,3.12,2.07,5.19s-.69,3.79-2.07,5.18Z"></path>
          <path class="cls-1" d="M976.36,783.58c-7.6,0-13.94-2.55-19-7.66-5.07-5.09-7.61-11.52-7.61-19.28v-51.57c0-9.76-.02-16.96-.06-21.66-.03-4.68-.26-9.72-.68-15.13-.43-5.41-1.06-9.49-1.9-12.26l13.71-3.35c.84,3.46,1.48,8.24,1.9,14.34.42,6.1.68,11.59.75,16.47.07,4.88.12,12.07.12,21.59v51.57c0,3.92,1.17,7.1,3.51,9.56s5.43,3.68,9.27,3.68v13.71Z"></path>
          <path class="cls-1" d="M984.65,783.58h-8.41l-3.68-13.71h12.09c9.51,0,17-2.03,22.45-6.1-1.15-24.79-2.73-43.4-4.72-55.84h13.71c1.15,7.83,2.2,17.82,3.16,29.95.96,12.11,1.55,22.6,1.78,31.43-3.53,4.45-8.55,7.94-15.08,10.47-6.53,2.54-13.62,3.81-21.3,3.81ZM1001.91,691.11c-1.38,1.38-3.07,2.08-5.06,2.08s-3.65-.68-4.95-2.01c-1.31-1.34-1.96-3.05-1.96-5.13s.68-3.64,2.02-4.94c1.34-1.3,2.98-1.96,4.9-1.96s3.68.68,5.06,2.01c1.38,1.35,2.08,2.98,2.08,4.9s-.69,3.69-2.08,5.06ZM1010.55,676.26c-1.38,1.32-3.07,1.96-5.07,1.96s-3.64-.68-4.94-2.01c-1.31-1.35-1.96-2.98-1.96-4.9s.68-3.69,2.02-5.06c1.34-1.38,2.97-2.08,4.89-2.08s3.68.68,5.07,2.01c1.38,1.35,2.08,3.05,2.08,5.13s-.69,3.64-2.08,4.94ZM1019.19,691.11c-1.38,1.38-3.07,2.08-5.07,2.08s-3.64-.68-4.95-2.01c-1.3-1.34-1.95-3.05-1.95-5.13s.67-3.64,2.01-4.94,2.98-1.96,4.9-1.96,3.68.68,5.07,2.01c1.38,1.35,2.07,2.98,2.07,4.9s-.68,3.69-2.07,5.06Z"></path>
          <path class="cls-1" d="M1040.14,783.58l-3.45-13.71h30.06c9.59,0,17.12-2.06,22.56-6.21v-16.47c0-6.68-2.09-12.1-6.27-16.28-4.19-4.19-9.62-6.28-16.29-6.28-4.23,0-8.49,1.96-12.78,5.87v16.7h-13.82v-22.33c4.23-4.53,8.41-7.98,12.55-10.37,4.15-2.37,8.83-3.56,14.05-3.56,10.43,0,19.09,3.44,25.96,10.37,6.87,6.91,10.3,15.54,10.3,25.89v22.12c-3.45,4.52-8.4,8.03-14.85,10.53-6.44,2.49-13.58,3.74-21.41,3.74h-26.6Z"></path>
          <path class="cls-1" d="M1150.56,783.58c-7.6,0-13.94-2.55-19-7.66-5.07-5.09-7.61-11.52-7.61-19.28v-51.57c0-9.76-.02-16.96-.06-21.66-.03-4.68-.26-9.72-.68-15.13-.43-5.41-1.06-9.49-1.9-12.26l13.71-3.35c.84,3.46,1.48,8.24,1.9,14.34.42,6.1.68,11.59.75,16.47.07,4.88.12,12.07.12,21.59v51.57c0,3.92,1.17,7.1,3.51,9.56s5.43,3.68,9.27,3.68v13.71Z"></path>
          <path class="cls-1" d="M1150.45,783.58l-3.68-13.71h78.41c-2.08-2.14-4-4.75-5.76-7.83-1.76-3.07-3.05-5.57-3.86-7.53s-1.9-4.75-3.28-8.36c-1.61-4.29-2.99-7.63-4.15-10-1.15-2.39-2.44-4.53-3.86-6.44-1.42-1.93-2.99-3.25-4.72-3.97-1.72-.74-3.78-1.1-6.16-1.1-4.22,0-8.48,1.96-12.78,5.87v16.7h-13.7v-22.33c4.22-4.53,8.38-7.98,12.49-10.37,4.11-2.37,8.77-3.56,13.99-3.56,8.06,0,14.35,2.37,18.88,7.14,4.53,4.76,8.83,12.51,12.9,23.26,1.46,3.84,2.66,6.87,3.63,9.1.96,2.23,2.27,4.7,3.91,7.43,1.65,2.72,3.51,5.06,5.59,7.02,2.07,1.94,4.48,3.63,7.25,4.99v13.71h-95.1Z"></path>
          <path class="cls-1" d="M1293.91,710.92c10.36,0,19.11,4.05,26.25,12.15,7.14,8.09,10.71,17.98,10.71,29.65v16.35c-2.92,4.29-6.83,7.78-11.74,10.47-4.91,2.69-9.9,4.04-14.97,4.04-13.13-.23-23.68-3.46-31.66-9.68-5.83,6.44-13.24,9.68-22.22,9.68h-4.72l-3.68-13.71h8.41c5.37,0,9.67-2.03,12.89-6.1s4.84-9.59,4.84-16.58v-4.37c0-9.36,2.38-17.03,7.14-22.98,4.76-5.95,11.02-8.92,18.77-8.92ZM1317.05,764.11v-11.39c0-7.83-2.25-14.47-6.74-19.93-4.48-5.44-9.96-8.18-16.4-8.18-3.69,0-6.64,1.63-8.87,4.9-2.23,3.26-3.34,7.7-3.34,13.3v20.72c5.45,4.07,12.97,6.18,22.56,6.33,4.76-.07,9.02-1.99,12.78-5.75Z"></path>
        </g>
      </g>
    </g>
  </g>
</svg>