<?xml version="1.0" encoding="UTF-8"?>
<svg xmlns="http://www.w3.org/2000/svg" viewBox="0 0 612 618">
  <path fill="currentColor" d="M299.29.37c16.17-2.2,26.05,5.88,38.6,14.17,56.36,37.24,107.66,90.69,148.28,144.42,70.24,92.92,112.04,200.5,123.22,316.95,1.44,15.01,5.2,44.15-2.38,56.76-6.92,11.5-29.11,21.56-41.28,27.59-156.89,77.71-362.35,75.37-519.55-.25C22.64,548.69-.51,541.34,0,511.06c.52-30.94,5.26-62.93,10.75-93.31C36.77,273.86,119.91,140.74,230.59,46.95c12.66-10.73,54.3-44.62,68.7-46.58M99.61,256.94c54.89-26.4,121.87-35.48,181.31-20,50.6,13.17,92.94,48.71,140.3,70.05,35.93,16.19,81.74,28.94,121.13,19.53.8-.19,1.57-.2,1.87-1.17,1-3.35-20.27-48.5-23.52-54.95-28.03-55.63-65.22-107.34-108.16-152.35-31.68-33.19-67.13-63.08-106.83-86.28-18.79,9.93-36.45,22.46-53,35.8-53.93,43.47-102.85,101.8-137.99,161.45-5.35,9.08-10.75,18.34-15.11,27.92M572.62,432.77c-1.2-10.57-3.16-21.1-5.38-31.49-1.42-6.68-3.27-17.66-5.51-23.68-.32-.85-.45-2.02-1.46-2.32-58.44,15.41-117.73,1.62-168.94-27.92-40.87-23.57-76.01-56.78-121.4-72.47-67.89-23.46-134.48-7.49-194.04,28.68l-12.21,30.84.37,1.12c43.94-20.04,91.52-29.49,139.64-20.6,64.11,11.84,112.49,57.19,168.66,86.61,50.96,26.68,114.14,45.79,172.21,37.95,9.53-1.29,18.97-3.72,28.07-6.73M582.32,515.84l-1.37-24.22-1.11-1.74c-84.28,21.89-170.81-.72-244.19-43.42-44.6-25.95-85.34-61.52-134.61-78.74-35.22-12.31-73.67-15.6-109.85-5.76-6.18,1.68-38.58,12.79-40.87,16.76l-8.35,32.1c-.35,1.55.7,1.17,1.78,1.01,13.69-1.97,27.05-6.14,41.25-7.42,111.14-10.02,170.71,70.62,258.62,117.92,39.79,21.41,83.9,37.06,129.14,41.59,38.65-10.67,74.94-28.23,109.55-48.09M339.89,585.58c-25.36-10.41-49-25.53-71.34-41.32-51.56-36.43-99.93-85.9-165.67-94.09-22.64-2.82-45.04-1.81-66.93,4.75l-.63.87c-1.84,19.95-5.27,39.91-4.43,60.01,89.56,51.72,193.8,75.37,297.44,71.3l11.57-1.52Z"></path>
</svg>