<?xml version="1.0" encoding="UTF-8"?>
<svg id="Layer_2" data-name="Layer 2" xmlns="http://www.w3.org/2000/svg" viewBox="0 0 1686.69 766.54">
  <defs>
    
  </defs>
  <g id="Layer_1-2" data-name="Layer 1">
    <g>
      <path class="cls-1" d="M1299.09.46c20.06-2.73,32.33,7.29,47.91,17.58,69.95,46.22,133.62,112.56,184.03,179.24,87.17,115.33,139.05,248.84,152.92,393.37,1.78,18.63,6.46,54.8-2.95,70.45-8.59,14.28-36.12,26.76-51.23,34.24-194.71,96.44-449.71,93.55-644.8-.31-29.22-14.06-57.95-23.18-57.31-60.76.65-38.39,6.53-78.1,13.34-115.8,32.28-178.57,135.47-343.79,272.84-460.19,15.71-13.32,67.39-55.37,85.26-57.82M1051.27,318.89c68.13-32.76,151.25-44.03,225.03-24.82,62.8,16.35,115.34,60.45,174.13,86.94,44.59,20.09,101.45,35.91,150.33,24.24,1-.24,1.95-.25,2.32-1.46,1.24-4.16-25.16-60.19-29.2-68.19-34.78-69.05-80.95-133.22-134.24-189.08-39.31-41.19-83.31-78.28-132.58-107.09-23.32,12.32-45.24,27.87-65.78,44.43-66.93,53.95-127.65,126.34-171.25,200.37-6.64,11.27-13.35,22.77-18.75,34.65M1638.31,537.11c-1.49-13.12-3.92-26.19-6.68-39.08-1.76-8.29-4.06-21.92-6.84-29.39-.39-1.05-.56-2.51-1.81-2.87-72.52,19.13-146.11,2.01-209.67-34.65-50.73-29.25-94.33-70.47-150.67-89.94-84.26-29.12-166.9-9.29-240.83,35.6l-15.16,38.28.46,1.39c54.53-24.87,113.58-36.6,173.3-25.56,79.57,14.7,139.62,70.98,209.32,107.49,63.25,33.11,141.66,56.83,213.73,47.1,11.82-1.6,23.54-4.62,34.84-8.36M1650.35,640.2l-1.7-30.06-1.38-2.16c-104.59,27.16-212-.89-303.06-53.89-55.35-32.2-105.92-76.35-167.06-97.72-43.71-15.28-91.43-19.36-136.33-7.15-7.67,2.09-47.88,15.88-50.73,20.8l-10.36,39.84c-.43,1.93.87,1.45,2.2,1.26,16.99-2.44,33.57-7.62,51.2-9.21,137.94-12.44,211.86,87.64,320.97,146.35,49.38,26.57,104.12,45.99,160.27,51.62,47.97-13.24,93.01-35.04,135.96-59.68M1349.48,726.76c-31.48-12.92-60.82-31.69-88.55-51.28-63.99-45.22-124.02-106.61-205.61-116.77-28.1-3.5-55.9-2.24-83.06,5.89l-.78,1.08c-2.28,24.76-6.54,49.53-5.5,74.48,111.15,64.19,240.52,93.54,369.15,88.49l14.35-1.89Z"></path>
      <g>
        <path class="cls-1" d="M600.74,364.71v107.44H106.06v47.59c0,33.74-8.3,59.65-24.89,77.61-16.54,18.02-40.77,26.97-72.62,26.97l-8.55-38.32h4.28c23.36,0,40.31-5.6,50.89-16.79,10.53-11.2,15.83-28.96,15.83-53.28v-82.09h494.68v-69.11h35.07Z"></path>
        <path class="cls-1" d="M312.45,516.64c3.62-3.79,8.12-5.68,13.49-5.68s9.94,1.89,13.73,5.68c3.79,3.79,5.68,8.36,5.68,13.73s-1.89,9.94-5.68,13.73c-3.79,3.79-8.36,5.68-13.73,5.68s-9.87-1.89-13.49-5.68c-3.63-3.79-5.44-8.36-5.44-13.73s1.81-9.94,5.44-13.73Z"></path>
        <path class="cls-1" d="M364.76,516.64c3.79-3.79,8.36-5.68,13.73-5.68s9.86,1.89,13.49,5.68c3.63,3.79,5.44,8.36,5.44,13.73s-1.82,9.94-5.44,13.73c-3.63,3.79-8.13,5.68-13.49,5.68s-9.94-1.89-13.73-5.68c-3.79-3.79-5.68-8.36-5.68-13.73s1.89-9.94,5.68-13.73Z"></path>
        <path class="cls-1" d="M609.72,624.34l-8.52-38.34h4.26c23.35,0,40.31-5.61,50.89-16.8,10.57-11.21,15.86-28.96,15.86-53.26v-151.24h35.03v155.03c0,33.77-8.29,59.65-24.85,77.64-16.57,17.99-40.79,26.98-72.66,26.98ZM689.72,328.24c-6,0-10.97-2.05-14.91-6.15-3.95-4.1-5.92-9-5.92-14.68s1.97-10.49,5.92-14.44c3.94-3.94,8.91-5.91,14.91-5.91s10.89,1.97,14.67,5.91c3.79,3.95,5.68,8.76,5.68,14.44s-1.98,10.58-5.92,14.68c-3.95,4.11-8.76,6.15-14.44,6.15Z"></path>
        <path class="cls-1" d="M771.73,184.33l27.93,13.26-5.68,20.83h-65.33l4.73-20.83h34.56l-4.26-1.89c-16.73-7.57-25.09-16.88-25.09-27.93,0-17.04,11.67-25.57,35.03-25.57h18.94l-5.21,20.83h-11.83c-11.36,0-17.04,2.84-17.04,8.52,0,4.11,4.42,8.36,13.26,12.78ZM778.83,472.15h-35.03v-236.69h35.03v236.69Z"></path>
      </g>
    </g>
  </g>
</svg>