<?xml version="1.0" encoding="UTF-8"?>
<svg id="Layer_2" data-name="Layer 2" xmlns="http://www.w3.org/2000/svg" viewBox="0 0 2009.93 740.89">
  <defs>
    
  </defs>
  <g id="Layer_1-2" data-name="Layer 1">
    <g>
      <path class="cls-1" d="M1635.29.44c19.39-2.64,31.25,7.05,46.31,16.99,67.61,44.68,129.15,108.79,177.87,173.24,84.26,111.47,134.4,240.51,147.81,380.2,1.72,18,6.24,52.96-2.85,68.09-8.3,13.8-34.91,25.87-49.52,33.1-188.19,93.21-434.66,90.42-623.22-.3-28.25-13.59-56.01-22.4-55.39-58.72.63-37.11,6.31-75.49,12.89-111.93,31.2-172.6,130.93-332.29,263.71-444.79,15.19-12.87,65.13-53.52,82.41-55.88M1395.77,308.21c65.85-31.66,146.19-42.55,217.5-23.99,60.7,15.8,111.48,58.43,168.3,84.03,43.1,19.42,98.06,34.71,145.3,23.43.96-.23,1.89-.24,2.24-1.41,1.19-4.02-24.32-58.18-28.22-65.91-33.62-66.74-78.24-128.77-129.75-182.75-38-39.81-80.53-75.66-128.15-103.5-22.54,11.91-43.72,26.94-63.58,42.94-64.69,52.14-123.38,122.12-165.52,193.67-6.42,10.89-12.9,22-18.12,33.49M1963.16,519.13c-1.44-12.68-3.79-25.31-6.46-37.78-1.7-8.01-3.93-21.19-6.61-28.4-.38-1.02-.54-2.43-1.75-2.78-70.1,18.49-141.22,1.94-202.65-33.49-49.03-28.27-91.18-68.12-145.63-86.93-81.44-28.14-161.32-8.98-232.77,34.4l-14.65,37,.44,1.34c52.7-24.04,109.78-35.38,167.5-24.71,76.9,14.21,134.94,68.61,202.32,103.89,61.13,32.01,136.92,54.93,206.58,45.53,11.43-1.55,22.75-4.46,33.67-8.08M1974.81,618.77l-1.64-29.05-1.33-2.08c-101.09,26.26-204.9-.86-292.92-52.08-53.5-31.13-102.37-73.79-161.47-94.45-42.25-14.77-88.37-18.72-131.77-6.91-7.42,2.02-46.28,15.35-49.03,20.11l-10.01,38.51c-.42,1.86.84,1.4,2.13,1.21,16.42-2.36,32.44-7.36,49.48-8.9,133.32-12.02,204.77,84.71,310.23,141.45,47.73,25.68,100.64,44.45,154.91,49.89,46.36-12.8,89.9-33.87,131.41-57.69M1684,702.44c-30.42-12.48-58.78-30.63-85.58-49.57-61.85-43.7-119.87-103.04-198.73-112.86-27.16-3.38-54.03-2.17-80.28,5.7l-.75,1.05c-2.2,23.93-6.33,47.87-5.32,71.99,107.43,62.04,232.47,90.41,356.79,85.53l13.87-1.82Z"></path>
      <g>
        <g>
          <path class="cls-1" d="M954.06,220.54v97.54h-449.11v43.2c0,30.63-7.53,54.15-22.59,70.46-15.02,16.36-37.01,24.49-65.93,24.49l-7.76-34.79h3.88c21.21,0,36.59-5.08,46.2-15.25,9.56-10.17,14.37-26.29,14.37-48.38v-74.53h449.11v-62.75h31.84Z"></path>
          <path class="cls-1" d="M692.32,358.48c3.29-3.44,7.37-5.16,12.25-5.16s9.02,1.72,12.46,5.16c3.44,3.44,5.16,7.59,5.16,12.46s-1.72,9.02-5.16,12.46c-3.44,3.44-7.59,5.16-12.46,5.16s-8.96-1.72-12.25-5.16c-3.3-3.44-4.94-7.59-4.94-12.46s1.64-9.02,4.94-12.46Z"></path>
          <path class="cls-1" d="M739.81,358.48c3.44-3.44,7.59-5.16,12.46-5.16s8.95,1.72,12.25,5.16c3.29,3.44,4.94,7.59,4.94,12.46s-1.65,9.02-4.94,12.46c-3.3,3.44-7.38,5.16-12.25,5.16s-9.02-1.72-12.46-5.16c-3.44-3.44-5.16-7.59-5.16-12.46s1.72-9.02,5.16-12.46Z"></path>
          <path class="cls-1" d="M962.21,456.25l-7.74-34.81h3.87c21.2,0,36.6-5.09,46.2-15.26,9.6-10.17,14.4-26.29,14.4-48.35v-137.31h31.8v140.75c0,30.66-7.52,54.15-22.56,70.48-15.04,16.33-37.03,24.5-65.97,24.5ZM1034.84,187.43c-5.45,0-9.96-1.86-13.54-5.59-3.58-3.72-5.37-8.17-5.37-13.32s1.79-9.52,5.37-13.11c3.58-3.58,8.09-5.37,13.54-5.37s9.88,1.79,13.32,5.37c3.44,3.59,5.16,7.95,5.16,13.11s-1.79,9.6-5.37,13.32c-3.59,3.73-7.95,5.59-13.11,5.59Z"></path>
          <path class="cls-1" d="M1109.29,56.78l25.36,12.03-5.16,18.91h-59.31l4.3-18.91h31.37l-3.87-1.72c-15.19-6.88-22.78-15.32-22.78-25.35,0-15.47,10.59-23.21,31.8-23.21h17.19l-4.73,18.91h-10.74c-10.31,0-15.47,2.58-15.47,7.74,0,3.73,4.01,7.59,12.03,11.6ZM1115.74,318.08h-31.8V103.2h31.8v214.88Z"></path>
        </g>
        <g>
          <path class="cls-1" d="M22.84,664.2c-3.32,0-6,.99-8.05,2.98-2.05,1.98-3.07,4.58-3.07,7.81s1.03,5.84,3.07,7.85c2.05,2.01,4.74,3.03,8.05,3.03h10.74l-2.73,11.61h-8.01c-6.57,0-12.02-2.14-16.35-6.4-4.33-4.26-6.49-9.61-6.49-16.05s2.16-11.79,6.49-16.05c4.32-4.26,9.77-6.4,16.35-6.4h34.84c-1.7-1.82-3.3-4.08-4.83-6.78s-2.61-4.78-3.22-6.25c-.62-1.47-1.54-3.83-2.78-7.08-1.37-3.63-2.52-6.47-3.46-8.48-.94-2.03-2.03-3.84-3.27-5.46-1.24-1.63-2.57-2.75-4-3.37-1.43-.63-3.19-.94-5.27-.94-3.58,0-7.2,1.66-10.83,4.97v14.15h-11.62v-18.93c3.58-3.84,7.13-6.76,10.64-8.79,3.51-2.01,7.45-3.02,11.81-3.02,3.58,0,6.71.52,9.42,1.56,2.7,1.03,5.09,2.72,7.17,5.07,2.08,2.35,3.88,4.97,5.41,7.91,1.53,2.92,3.17,6.64,4.93,11.12,1.03,2.79,1.84,4.9,2.39,6.3s1.4,3.23,2.54,5.5,2.21,4.07,3.22,5.38c1.01,1.3,2.31,2.68,3.9,4.14,1.59,1.47,3.33,2.65,5.22,3.56l-2.83,11.04H22.84Z"></path>
          <path class="cls-1" d="M145.22,652.58v11.62h-10.83v2.53c0,8.98-2.91,16.35-8.74,22.12-5.82,5.76-13.19,8.63-22.1,8.63h-4.59l-2.93-11.61h7.52c5.85,0,10.51-1.75,13.96-5.23,3.44-3.48,5.17-8.12,5.17-13.92v-3.51c-.97-.2-3.51-.61-7.61-1.27l-8.69-1.37c-8.98-1.43-15.29-5.1-18.93-11.02v-11.9c0-8.59,2.65-15.9,7.95-21.92,5.3-6.01,11.79-9.03,19.48-9.03,5.78,0,10.49,2.25,14.1,6.73,3.61,4.5,5.42,10.19,5.42,17.09v22.05h10.83ZM108.33,649.17c1.23.2,2.89.43,4.97.73s3.26.48,3.51.54c1.1.2,3.06.52,5.85.98v-20.89c0-3.77-.71-6.73-2.14-8.89-1.43-2.15-3.32-3.21-5.66-3.21-4.37,0-8.07,1.84-11.13,5.56-3.06,3.7-4.59,8.26-4.59,13.66v7.61c1.89,1.82,4.95,3.12,9.18,3.9Z"></path>
          <path class="cls-1" d="M224.27,652.58v11.62c-6.64,0-12.33-1.96-17.08-5.85-5.08,3.9-10.54,5.85-16.4,5.85-11.13-.2-20.08-2.93-26.84-8.2-4.95,5.46-11.23,8.2-18.84,8.2l-2.54-11.62h2.54c4.55,0,8.2-1.72,10.93-5.17s4.1-8.13,4.1-14.06v-3.7c0-7.94,2.01-14.43,6.05-19.48,4.03-5.04,9.33-7.56,15.91-7.56,8.79,0,16.2,3.44,22.26,10.3,6.05,6.86,9.07,15.24,9.07,25.13v10.24c1.04,1.3,2.54,2.35,4.49,3.13,1.95.78,4.07,1.16,6.34,1.16ZM201.72,647.7v-9.65c0-6.64-1.9-12.27-5.71-16.89-3.81-4.61-8.44-6.93-13.91-6.93-3.12,0-5.63,1.38-7.52,4.15-1.89,2.77-2.83,6.52-2.83,11.27v17.56c4.75,3.45,11.16,5.24,19.23,5.36,3.97-.06,7.54-1.69,10.73-4.88Z"></path>
          <path class="cls-1" d="M224.18,664.2l-2.25-11.62h17.28v-90.95l11.62-2.93c0,2.86.26,5.99.78,9.37.52,3.38.97,5.91,1.36,7.56.39,1.66.72,2.89.98,3.66l-3.12-.1v45c0,4.41-.23,8.13-.68,11.12,2.02-3.51,3.82-6.55,5.41-9.12,1.6-2.57,3.65-5.45,6.15-8.63,2.5-3.19,4.94-5.8,7.31-7.81s5.11-3.72,8.2-5.07c3.09-1.37,6.23-2.05,9.42-2.05,5.85,0,11.16,1.66,15.91,4.97,4.75,3.33,8.42,7.64,11.03,12.98,2.6,5.34,3.9,11,3.9,16.99v14.64c-2.86,3.63-7.03,6.55-12.49,8.73-5.47,2.18-11.58,3.27-18.35,3.27h-62.46ZM254.24,652.58h32.4c8.13,0,14.51-1.75,19.13-5.27v-9.75c0-6.12-1.82-11.54-5.46-16.25-3.65-4.72-8.2-7.08-13.66-7.08-1.95,0-3.89.43-5.81,1.27-1.92.85-3.66,1.9-5.23,3.17-1.56,1.27-3.19,2.93-4.88,4.97-1.69,2.05-3.16,4.04-4.39,5.95-1.24,1.93-2.6,4.25-4.1,6.99-1.49,2.72-2.73,5.09-3.7,7.07-.98,1.98-2.12,4.39-3.42,7.18-.39.78-.68,1.37-.88,1.75Z"></path>
          <path class="cls-1" d="M391.16,697.48c-11.19,0-20.51-3.72-27.96-11.14-7.45-7.4-11.17-16.75-11.17-28,0-8.72,1.4-17.09,4.2-25.09l11.61.2c-2.8,8.15-4.16,16.43-4.1,24.9,0,8.13,2.56,14.75,7.66,19.85,5.11,5.11,11.69,7.67,19.76,7.67,3.84,0,7.54-.46,11.13-1.37,3.58-.92,6.65-2.03,9.22-3.33s5.14-2.98,7.71-5.03c2.57-2.04,4.58-3.81,6.05-5.31,1.46-1.49,3.14-3.26,5.02-5.27l-2.83-2.93c-.97-.2-2.67-.49-5.07-.88-2.41-.39-4.92-.78-7.52-1.17-9.05-1.49-15.35-5.17-18.93-11.02v-11.9c0-8.59,2.65-15.9,7.95-21.92,5.3-6.01,11.79-9.03,19.47-9.03,5.79,0,10.48,2.25,14.06,6.73,3.58,4.5,5.37,10.19,5.37,17.09v22.05h10.83v11.62h-10.83v4.78c-.33.32-1.24,1.36-2.73,3.07-1.5,1.72-2.75,3.14-3.76,4.25-1.01,1.1-2.56,2.64-4.64,4.58-2.08,1.96-4.02,3.58-5.81,4.89-1.8,1.3-4.05,2.75-6.78,4.39-2.73,1.62-5.43,2.92-8.1,3.9s-5.74,1.79-9.22,2.44c-3.48.64-7.01.98-10.59.98ZM431.18,651.42v-20.89c0-3.72-.71-6.65-2.14-8.83-1.43-2.18-3.32-3.27-5.67-3.27-4.36,0-8.08,1.84-11.17,5.56-3.09,3.7-4.64,8.26-4.64,13.66v7.61c1.96,1.75,5.04,3.06,9.27,3.9,1.24.2,2.9.43,4.98.73s3.22.48,3.42.54c.32.06,1.19.2,2.58.39s2.52.39,3.37.59ZM420.05,592.46c-1.17,1.17-2.65,1.76-4.44,1.76s-3.27-.59-4.44-1.76c-1.17-1.16-1.75-2.63-1.75-4.39s.58-3.21,1.75-4.39,2.65-1.76,4.44-1.76,3.27.59,4.44,1.76c1.17,1.17,1.76,2.63,1.76,4.39s-.59,3.23-1.76,4.39ZM435.08,592.46c-1.17,1.17-2.63,1.76-4.39,1.76s-3.22-.59-4.39-1.76c-1.17-1.16-1.76-2.63-1.76-4.39s.59-3.21,1.76-4.39c1.17-1.17,2.63-1.76,4.39-1.76s3.22.59,4.39,1.76,1.75,2.63,1.75,4.39-.58,3.23-1.75,4.39Z"></path>
          <path class="cls-1" d="M457.62,664.2h-4l-3.12-11.62h7.13c8.33,0,15.81-.96,22.44-2.92-5.6-3.84-9.72-8.4-12.39-13.66l-.59-2.64c0-10.41,2.44-18.83,7.32-25.27,4.88-6.44,11.32-9.65,19.32-9.65s14.45,3.2,19.33,9.61c4.88,6.4,7.31,14.85,7.31,25.32l-.58,2.64c-2.54,5.21-6.61,9.77-12.2,13.66,6.64,1.96,14.06,2.92,22.26,2.92v11.62c-13.28,0-25.25-2.12-35.92-6.34-10.8,4.22-22.9,6.34-36.3,6.34ZM493.93,645.17c6.96-3.52,11.91-7.91,14.84-13.17-.2-6.78-1.65-12.13-4.35-16.07-2.7-3.93-6.26-5.9-10.69-5.9s-7.89,1.98-10.59,5.95c-2.7,3.97-4.14,9.3-4.34,16.01,3.05,5.32,8.1,9.72,15.12,13.17ZM490.61,584.17c-1.17,1.17-2.65,1.75-4.44,1.75s-3.26-.57-4.39-1.75c-1.14-1.17-1.71-2.65-1.71-4.44s.57-3.26,1.71-4.39c1.14-1.15,2.6-1.72,4.39-1.72s3.27.57,4.44,1.72c1.17,1.13,1.76,2.6,1.76,4.39s-.59,3.27-1.76,4.44ZM505.64,584.17c-1.17,1.17-2.63,1.75-4.39,1.75s-3.22-.57-4.39-1.75c-1.17-1.17-1.75-2.65-1.75-4.44s.59-3.26,1.75-4.39c1.17-1.15,2.64-1.72,4.39-1.72s3.22.57,4.39,1.72c1.17,1.13,1.75,2.6,1.75,4.39s-.59,3.27-1.75,4.44Z"></path>
          <path class="cls-1" d="M529.75,664.2l-3.12-11.62h66.46c-1.76-1.82-3.39-4.02-4.88-6.64-1.49-2.6-2.58-4.72-3.27-6.38s-1.61-4.02-2.78-7.08c-1.36-3.63-2.54-6.47-3.51-8.48-.98-2.03-2.07-3.84-3.27-5.46-1.2-1.63-2.54-2.75-4-3.37-1.46-.63-3.21-.94-5.22-.94-3.58,0-7.19,1.66-10.83,4.97v14.15h-11.61v-18.93c3.58-3.84,7.1-6.76,10.58-8.79,3.49-2.01,7.43-3.02,11.86-3.02,6.83,0,12.16,2.01,16,6.05,3.84,4.04,7.48,10.6,10.93,19.71,1.24,3.26,2.26,5.83,3.07,7.71.81,1.89,1.92,3.98,3.32,6.3,1.4,2.31,2.98,4.29,4.74,5.95,1.75,1.65,3.8,3.07,6.15,4.23v11.62h-80.61Z"></path>
          <path class="cls-1" d="M617.49,664.2h-7.13l-3.12-11.62h10.25c8.06,0,14.41-1.72,19.03-5.17-.98-21.01-2.31-36.79-4-47.33h11.62c.97,6.64,1.87,15.1,2.68,25.39.81,10.27,1.31,19.15,1.51,26.64-2.99,3.77-7.25,6.73-12.78,8.87-5.53,2.15-11.55,3.23-18.05,3.23ZM632.12,585.82c-1.17,1.17-2.65,1.76-4.44,1.76s-3.27-.59-4.44-1.76c-1.17-1.16-1.76-2.64-1.76-4.43s.59-3.26,1.76-4.4c1.17-1.13,2.65-1.7,4.44-1.7s3.27.57,4.44,1.7c1.17,1.15,1.76,2.61,1.76,4.4s-.59,3.27-1.76,4.43ZM647.26,585.82c-1.17,1.17-2.65,1.76-4.44,1.76s-3.26-.59-4.39-1.76c-1.14-1.16-1.7-2.64-1.7-4.43s.57-3.26,1.7-4.4c1.14-1.13,2.61-1.7,4.39-1.7s3.27.57,4.44,1.7c1.17,1.15,1.75,2.61,1.75,4.4s-.59,3.27-1.75,4.43Z"></path>
          <path class="cls-1" d="M727.28,664.2c-12.43,0-22.5-2.67-30.21-8.01-7.71-5.34-12.06-12.71-13.03-22.16-.92-7.42.32-15.87,3.71-25.37h11.71c-1.49,3.9-2.62,8.09-3.37,12.55s-.93,8.27-.54,11.46c.72,6.26,3.81,11.14,9.27,14.64,5.47,3.52,12.95,5.27,22.45,5.27,7.15,0,15.08-.94,23.77-2.82,8.68-1.89,16.8-4.43,24.35-7.61-.97-16.98-2.28-31-3.9-42.07h11.61c2.34,16.47,3.74,32.89,4.2,49.29-8.52,4.43-18.35,8.01-29.47,10.73-11.13,2.74-21.31,4.11-30.55,4.11ZM732.26,602.81c-1.17,1.17-2.65,1.76-4.44,1.76s-3.26-.59-4.39-1.76-1.71-2.64-1.71-4.39.57-3.23,1.71-4.4,2.6-1.76,4.39-1.76,3.27.59,4.44,1.76c1.17,1.17,1.76,2.64,1.76,4.4s-.59,3.21-1.76,4.39ZM747.29,602.81c-1.17,1.17-2.63,1.76-4.39,1.76s-3.22-.59-4.39-1.76c-1.17-1.17-1.75-2.64-1.75-4.39s.59-3.23,1.75-4.4c1.17-1.17,2.64-1.76,4.39-1.76s3.22.59,4.39,1.76c1.17,1.17,1.75,2.64,1.75,4.4s-.59,3.21-1.75,4.39Z"></path>
          <path class="cls-1" d="M827.61,664.2c-6.44,0-11.81-2.17-16.1-6.5-4.3-4.32-6.45-9.77-6.45-16.35v-43.72c0-8.27-.01-14.38-.05-18.36-.03-3.97-.22-8.24-.58-12.83-.36-4.58-.9-8.05-1.61-10.39l11.62-2.84c.71,2.93,1.25,6.99,1.61,12.16.36,5.17.57,9.82.64,13.96s.1,10.23.1,18.3v43.72c0,3.33.99,6.02,2.98,8.1,1.98,2.08,4.6,3.12,7.86,3.12v11.62Z"></path>
          <path class="cls-1" d="M834.64,664.2h-7.13l-3.12-11.62h10.25c8.06,0,14.41-1.72,19.03-5.17-.98-21.01-2.31-36.79-4-47.33h11.62c.97,6.64,1.87,15.1,2.68,25.39.81,10.27,1.31,19.15,1.51,26.64-2.99,3.77-7.25,6.73-12.78,8.87-5.53,2.15-11.55,3.23-18.05,3.23ZM849.27,585.82c-1.17,1.17-2.6,1.76-4.29,1.76s-3.09-.57-4.2-1.7c-1.11-1.13-1.66-2.58-1.66-4.35s.57-3.09,1.71-4.19,2.52-1.66,4.15-1.66,3.12.57,4.29,1.7c1.17,1.15,1.76,2.53,1.76,4.15s-.59,3.13-1.76,4.29ZM856.59,573.23c-1.17,1.12-2.61,1.66-4.3,1.66s-3.09-.57-4.19-1.7c-1.11-1.15-1.66-2.53-1.66-4.15s.57-3.13,1.71-4.29c1.13-1.17,2.51-1.76,4.14-1.76s3.12.57,4.3,1.7c1.17,1.15,1.76,2.58,1.76,4.35s-.59,3.09-1.76,4.19ZM863.92,585.82c-1.17,1.17-2.61,1.76-4.3,1.76s-3.09-.57-4.2-1.7c-1.1-1.13-1.66-2.58-1.66-4.35s.57-3.09,1.7-4.19,2.52-1.66,4.15-1.66,3.12.57,4.3,1.7c1.17,1.15,1.75,2.53,1.75,4.15s-.58,3.13-1.75,4.29Z"></path>
          <path class="cls-1" d="M881.67,664.2l-2.93-11.62h25.48c8.13,0,14.51-1.75,19.13-5.27v-13.96c0-5.66-1.77-10.25-5.32-13.8-3.55-3.55-8.15-5.32-13.81-5.32-3.58,0-7.2,1.66-10.83,4.97v14.15h-11.71v-18.93c3.58-3.84,7.13-6.76,10.64-8.79,3.51-2.01,7.48-3.02,11.91-3.02,8.84,0,16.18,2.92,22,8.79,5.83,5.85,8.73,13.17,8.73,21.95v18.75c-2.93,3.83-7.12,6.8-12.59,8.93-5.46,2.11-11.51,3.17-18.15,3.17h-22.55Z"></path>
          <path class="cls-1" d="M975.27,664.2c-6.44,0-11.81-2.17-16.1-6.5-4.3-4.32-6.45-9.77-6.45-16.35v-43.72c0-8.27-.01-14.38-.05-18.36-.03-3.97-.22-8.24-.58-12.83-.36-4.58-.9-8.05-1.61-10.39l11.62-2.84c.71,2.93,1.25,6.99,1.61,12.16.36,5.17.57,9.82.64,13.96s.1,10.23.1,18.3v43.72c0,3.33.99,6.02,2.98,8.1,1.98,2.08,4.6,3.12,7.86,3.12v11.62Z"></path>
          <path class="cls-1" d="M975.18,664.2l-3.12-11.62h66.46c-1.76-1.82-3.39-4.02-4.88-6.64-1.49-2.6-2.58-4.72-3.27-6.38-.68-1.66-1.61-4.02-2.78-7.08-1.36-3.63-2.54-6.47-3.51-8.48-.98-2.03-2.07-3.84-3.27-5.46-1.2-1.63-2.54-2.75-4-3.37-1.46-.63-3.21-.94-5.22-.94-3.58,0-7.19,1.66-10.83,4.97v14.15h-11.61v-18.93c3.58-3.84,7.1-6.76,10.58-8.79,3.49-2.01,7.43-3.02,11.86-3.02,6.83,0,12.16,2.01,16,6.05s7.48,10.6,10.93,19.71c1.24,3.26,2.26,5.83,3.07,7.71.81,1.89,1.92,3.98,3.32,6.3,1.4,2.31,2.98,4.29,4.74,5.95,1.75,1.65,3.8,3.07,6.15,4.23v11.62h-80.61Z"></path>
          <path class="cls-1" d="M1096.78,602.62c8.78,0,16.2,3.44,22.25,10.3,6.05,6.86,9.07,15.24,9.07,25.13v13.86c-2.47,3.63-5.79,6.59-9.95,8.87-4.16,2.28-8.39,3.42-12.69,3.42-11.13-.2-20.07-2.93-26.84-8.2-4.95,5.46-11.23,8.2-18.83,8.2h-4l-3.12-11.62h7.13c4.55,0,8.19-1.72,10.93-5.17s4.1-8.13,4.1-14.06v-3.7c0-7.94,2.02-14.43,6.05-19.48,4.04-5.04,9.34-7.56,15.91-7.56ZM1116.4,647.7v-9.65c0-6.64-1.91-12.27-5.71-16.89-3.8-4.61-8.44-6.93-13.9-6.93-3.13,0-5.63,1.38-7.52,4.15-1.89,2.77-2.83,6.52-2.83,11.27v17.56c4.62,3.45,11,5.24,19.13,5.36,4.03-.06,7.64-1.69,10.83-4.88Z"></path>
        </g>
      </g>
    </g>
  </g>
</svg>