<?xml version="1.0" encoding="UTF-8"?>
<svg id="Layer_2" data-name="Layer 2" xmlns="http://www.w3.org/2000/svg" viewBox="0 0 1862.95 846.65">
  <defs>
    
  </defs>
  <g id="Layer_1-2" data-name="Layer 1">
    <g>
      <path class="cls-1" d="M1434.84.5c22.16-3.02,35.71,8.05,52.92,19.42,77.26,51.05,147.58,124.32,203.26,197.97,96.28,127.38,153.58,274.84,168.9,434.47,1.97,20.57,7.13,60.52-3.26,77.81-9.48,15.77-39.9,29.56-56.59,37.82-215.06,106.52-496.7,103.32-712.18-.34-32.28-15.53-64.01-25.6-63.3-67.11.72-42.41,7.21-86.26,14.73-127.91,35.65-197.24,149.62-379.72,301.35-508.28,17.36-14.71,74.43-61.16,94.17-63.86M1161.12,352.21c75.25-36.18,167.05-48.63,248.54-27.41,69.36,18.05,127.4,66.77,192.32,96.02,49.25,22.19,112.05,39.67,166.04,26.77,1.1-.26,2.16-.28,2.56-1.61,1.37-4.59-27.79-66.48-32.25-75.32-38.42-76.26-89.41-147.15-148.27-208.83-43.42-45.5-92.02-86.46-146.44-118.28-25.76,13.61-49.96,30.79-72.65,49.07-73.92,59.58-140.99,139.55-189.15,221.31-7.33,12.45-14.74,25.15-20.71,38.27M1809.51,593.24c-1.64-14.49-4.33-28.92-7.38-43.17-1.95-9.15-4.49-24.21-7.56-32.46-.43-1.16-.61-2.77-2-3.17-80.1,21.12-161.38,2.22-231.58-38.27-56.03-32.31-104.19-77.84-166.42-99.34-93.07-32.16-184.35-10.27-265.99,39.32l-16.74,42.28.51,1.53c60.23-27.47,125.45-40.43,191.41-28.24,87.88,16.23,154.2,78.4,231.2,118.72,69.86,36.57,156.46,62.77,236.06,52.03,13.06-1.77,26-5.1,38.48-9.23M1822.81,707.1l-1.87-33.2-1.52-2.38c-115.52,30-234.15-.98-334.73-59.52-61.14-35.57-116.98-84.33-184.51-107.94-48.28-16.88-100.98-21.39-150.58-7.89-8.48,2.31-52.88,17.54-56.03,22.98l-11.44,44c-.48,2.13.96,1.6,2.43,1.39,18.76-2.7,37.07-8.41,56.55-10.17,152.35-13.74,234,96.8,354.51,161.64,54.54,29.35,115.01,50.8,177.02,57.01,52.98-14.63,102.73-38.7,150.17-65.92M1490.5,802.71c-34.77-14.27-67.17-35-97.8-56.64-70.67-49.94-136.98-117.75-227.1-128.97-31.04-3.86-61.74-2.48-91.74,6.51l-.86,1.2c-2.52,27.35-7.23,54.7-6.08,82.26,122.76,70.9,265.65,103.31,407.72,97.73l15.85-2.09Z"></path>
      <g>
        <g>
          <path class="cls-1" d="M663.52,245.76v118.66H117.15v52.56c0,37.27-9.16,65.88-27.49,85.72-18.27,19.9-45.03,29.79-80.21,29.79L0,490.17h4.72c25.8,0,44.52-6.18,56.21-18.55,11.63-12.37,17.48-31.98,17.48-58.85v-90.67h546.37v-76.33h38.73Z"></path>
          <path class="cls-1" d="M345.1,413.57c4-4.18,8.97-6.27,14.9-6.27s10.98,2.09,15.16,6.27c4.18,4.18,6.27,9.23,6.27,15.16s-2.09,10.98-6.27,15.16c-4.18,4.18-9.24,6.27-15.16,6.27s-10.9-2.09-14.9-6.27c-4.01-4.18-6.01-9.24-6.01-15.16s2-10.98,6.01-15.16Z"></path>
          <path class="cls-1" d="M402.87,413.57c4.18-4.18,9.23-6.27,15.16-6.27s10.89,2.09,14.9,6.27c4,4.18,6.01,9.23,6.01,15.16s-2.01,10.98-6.01,15.16c-4.01,4.18-8.98,6.27-14.9,6.27s-10.98-2.09-15.16-6.27c-4.18-4.18-6.27-9.24-6.27-15.16s2.09-10.98,6.27-15.16Z"></path>
          <path class="cls-1" d="M673.43,532.52l-9.41-42.35h4.7c25.79,0,44.52-6.19,56.21-18.56,11.68-12.38,17.52-31.99,17.52-58.82v-167.05h38.69v171.23c0,37.29-9.15,65.88-27.45,85.75-18.3,19.87-45.05,29.8-80.25,29.8ZM761.79,205.48c-6.63,0-12.12-2.26-16.47-6.8-4.36-4.53-6.54-9.94-6.54-16.21s2.17-11.58,6.54-15.95c4.36-4.35,9.85-6.53,16.47-6.53s12.02,2.18,16.21,6.53c4.18,4.36,6.27,9.67,6.27,15.95s-2.18,11.68-6.54,16.21c-4.36,4.53-9.67,6.8-15.95,6.8Z"></path>
          <path class="cls-1" d="M852.37,46.53l30.85,14.64-6.27,23.01h-72.15l5.23-23.01h38.17l-4.7-2.09c-18.48-8.37-27.71-18.64-27.71-30.84C815.77,9.41,828.66,0,854.46,0h20.91l-5.75,23.01h-13.07c-12.55,0-18.82,3.14-18.82,9.41,0,4.53,4.88,9.24,14.64,14.11ZM860.21,364.42h-38.69V103h38.69v261.42Z"></path>
        </g>
        <g>
          <path class="cls-1" d="M216.47,833.02h-45.49l-18.3-55.94H62.23l-17.26,55.94H0l76.34-236.32h59.6l80.52,236.32ZM106.67,635.38l-31.89,101.43h64.83l-32.94-101.43Z"></path>
          <path class="cls-1" d="M377.45,698.65l-85.22,98.29h85.74v36.08h-137.51v-34.51l85.75-97.77h-85.75v-36.08h136.98v33.98Z"></path>
          <path class="cls-1" d="M564.58,731.58c0,10.81-.7,20.39-2.09,28.75h-118.68c7.32,25.1,28.93,37.65,64.83,37.65,13.59,0,26.31-1.57,38.17-4.7l5.23,33.98c-12.55,3.83-28.41,5.75-47.58,5.75-32.77,0-58.04-8.01-75.81-24.05-17.77-16.03-26.66-39.03-26.66-69.01,0-26.49,7.32-47.58,21.96-63.27,14.64-15.68,35.2-23.53,61.7-23.53,25.1,0,44.52,7.32,58.3,21.96,13.76,14.64,20.65,33.46,20.65,56.47ZM485.63,688.19c-25.1,0-39.56,12.54-43.4,37.64h85.22c-1.75-25.1-15.68-37.64-41.83-37.64Z"></path>
          <path class="cls-1" d="M751.19,731.58c0,10.81-.7,20.39-2.09,28.75h-118.68c7.32,25.1,28.93,37.65,64.83,37.65,13.59,0,26.31-1.57,38.17-4.7l5.23,33.98c-12.55,3.83-28.41,5.75-47.58,5.75-32.77,0-58.04-8.01-75.81-24.05-17.77-16.03-26.66-39.03-26.66-69.01,0-26.49,7.32-47.58,21.96-63.27,14.64-15.68,35.2-23.53,61.7-23.53,25.1,0,44.52,7.32,58.3,21.96,13.76,14.64,20.65,33.46,20.65,56.47ZM672.24,688.19c-25.1,0-39.56,12.54-43.4,37.64h85.22c-1.75-25.1-15.68-37.64-41.83-37.64Z"></path>
          <path class="cls-1" d="M818.59,833.02h-43.39v-168.35h108.03v38.69h-64.63v129.66Z"></path>
        </g>
      </g>
    </g>
  </g>
</svg>