<?xml version="1.0" encoding="UTF-8"?>
<svg id="Layer_2" data-name="Layer 2" xmlns="http://www.w3.org/2000/svg" viewBox="0 0 2267.28 620.55">
  <defs>
    
  </defs>
  <g id="Layer_1-2" data-name="Layer 1">
    <g>
      <path class="cls-1" d="M1127.1.37c16.24-2.21,26.17,5.9,38.78,14.23,56.62,37.42,108.17,91.12,148.98,145.1,70.57,93.36,112.57,201.45,123.8,318.45,1.44,15.08,5.23,44.36-2.39,57.03-6.95,11.56-29.24,21.66-41.48,27.72-157.63,78.07-364.06,75.73-522-.25-23.66-11.38-46.91-18.76-46.39-49.19.53-31.08,5.28-63.23,10.8-93.75,26.13-144.56,109.67-278.32,220.88-372.55,12.72-10.78,54.55-44.83,69.02-46.8M926.48,258.15c55.15-26.52,122.44-35.64,182.17-20.09,50.84,13.23,93.38,48.94,140.97,70.38,36.1,16.27,82.13,29.07,121.7,19.62.81-.19,1.58-.2,1.88-1.18,1-3.37-20.37-48.73-23.64-55.21-28.16-55.9-65.53-107.85-108.67-153.07-31.83-33.35-67.45-63.37-107.33-86.69-18.88,9.98-36.62,22.56-53.25,35.97-54.18,43.67-103.34,102.28-138.64,162.21-5.38,9.12-10.81,18.43-15.18,28.05M1401.72,434.81c-1.2-10.62-3.17-21.2-5.41-31.64-1.43-6.71-3.29-17.75-5.54-23.79-.32-.85-.45-2.03-1.47-2.33-58.71,15.48-118.28,1.63-169.74-28.05-41.06-23.68-76.37-57.05-121.98-72.81-68.21-23.57-135.12-7.52-194.96,28.82l-12.27,30.99.37,1.12c44.14-20.14,91.95-29.63,140.3-20.7,64.41,11.9,113.03,57.46,169.46,87.02,51.2,26.81,114.68,46.01,173.02,38.13,9.57-1.3,19.06-3.74,28.2-6.76M1411.47,518.27l-1.37-24.33-1.12-1.75c-84.67,21.99-171.62-.72-245.34-43.62-44.81-26.07-85.74-61.81-135.24-79.11-35.39-12.37-74.02-15.68-110.36-5.79-6.21,1.69-38.76,12.85-41.06,16.84l-8.39,32.25c-.35,1.56.71,1.17,1.78,1.02,13.75-1.98,27.17-6.17,41.45-7.45,111.67-10.07,171.51,70.95,259.84,118.48,39.98,21.51,84.29,37.23,129.75,41.79,38.83-10.72,75.3-28.37,110.07-48.32M1167.9,588.35c-25.48-10.46-49.23-25.65-71.68-41.51-51.8-36.6-100.4-86.3-166.45-94.53-22.75-2.83-45.25-1.82-67.24,4.77l-.63.88c-1.85,20.04-5.3,40.1-4.45,60.29,89.98,51.96,194.71,75.72,298.84,71.63l11.62-1.53Z"></path>
      <g>
        <path class="cls-1" d="M486.33,295.25v86.97H85.86v38.52c0,27.32-6.72,48.29-20.15,62.83-13.39,14.58-33,21.84-58.79,21.84l-6.92-31.02h3.46c18.91,0,32.63-4.53,41.2-13.6,8.53-9.06,12.81-23.44,12.81-43.14v-66.46h400.46v-55.95h28.39Z"></path>
        <path class="cls-1" d="M252.94,418.25c2.93-3.07,6.57-4.6,10.92-4.6s8.05,1.53,11.11,4.6c3.07,3.07,4.6,6.77,4.6,11.11s-1.53,8.05-4.6,11.11c-3.07,3.07-6.77,4.6-11.11,4.6s-7.99-1.53-10.92-4.6c-2.94-3.07-4.41-6.77-4.41-11.11s1.47-8.05,4.41-11.11Z"></path>
        <path class="cls-1" d="M295.29,418.25c3.07-3.07,6.77-4.6,11.11-4.6s7.98,1.53,10.92,4.6c2.94,3.07,4.41,6.77,4.41,11.11s-1.47,8.05-4.41,11.11c-2.94,3.07-6.58,4.6-10.92,4.6s-8.05-1.53-11.11-4.6c-3.07-3.07-4.6-6.77-4.6-11.11s1.53-8.05,4.6-11.11Z"></path>
        <path class="cls-1" d="M493.59,505.43l-6.9-31.04h3.45c18.9,0,32.63-4.54,41.2-13.6,8.56-9.07,12.84-23.44,12.84-43.12v-122.44h28.36v125.5c0,27.34-6.71,48.29-20.12,62.85-13.41,14.56-33.02,21.84-58.82,21.84ZM558.36,265.73c-4.86,0-8.88-1.66-12.07-4.98-3.2-3.32-4.79-7.28-4.79-11.88s1.59-8.49,4.79-11.69c3.19-3.19,7.22-4.79,12.07-4.79s8.81,1.6,11.88,4.79c3.07,3.2,4.6,7.09,4.6,11.69s-1.6,8.56-4.79,11.88c-3.2,3.32-7.09,4.98-11.69,4.98Z"></path>
        <path class="cls-1" d="M624.75,149.23l22.61,10.73-4.6,16.86h-52.88l3.83-16.86h27.98l-3.45-1.53c-13.54-6.13-20.31-13.66-20.31-22.61,0-13.8,9.45-20.7,28.36-20.7h15.33l-4.22,16.86h-9.58c-9.2,0-13.8,2.3-13.8,6.9,0,3.32,3.57,6.77,10.73,10.34ZM630.5,382.23h-28.36v-191.61h28.36v191.61Z"></path>
      </g>
      <g>
        <path class="cls-1" d="M1778.58,396.88h-33.34l-13.41-41h-66.3l-12.65,41h-32.96l55.95-173.21h43.69l59.02,173.21ZM1698.1,252.03l-23.38,74.35h47.52l-24.14-74.35Z"></path>
        <path class="cls-1" d="M1896.58,298.4l-62.46,72.04h62.85v26.44h-100.79v-25.29l62.85-71.66h-62.85v-26.44h100.4v24.91Z"></path>
        <path class="cls-1" d="M2033.73,322.54c0,7.92-.52,14.95-1.53,21.07h-86.99c5.37,18.4,21.2,27.59,47.52,27.59,9.96,0,19.29-1.15,27.98-3.45l3.83,24.91c-9.2,2.81-20.83,4.22-34.87,4.22-24.02,0-42.54-5.87-55.57-17.63-13.03-11.75-19.54-28.61-19.54-50.58,0-19.41,5.37-34.88,16.1-46.37,10.73-11.5,25.8-17.24,45.22-17.24,18.4,0,32.63,5.36,42.73,16.09,10.09,10.73,15.14,24.53,15.14,41.39ZM1975.87,290.73c-18.4,0-29,9.19-31.81,27.59h62.46c-1.28-18.4-11.5-27.59-30.66-27.59Z"></path>
        <path class="cls-1" d="M2170.51,322.54c0,7.92-.52,14.95-1.53,21.07h-86.99c5.37,18.4,21.2,27.59,47.52,27.59,9.96,0,19.29-1.15,27.98-3.45l3.83,24.91c-9.2,2.81-20.83,4.22-34.87,4.22-24.02,0-42.54-5.87-55.57-17.63-13.03-11.75-19.54-28.61-19.54-50.58,0-19.41,5.37-34.88,16.1-46.37,10.73-11.5,25.8-17.24,45.22-17.24,18.4,0,32.63,5.36,42.73,16.09,10.09,10.73,15.14,24.53,15.14,41.39ZM2112.64,290.73c-18.4,0-29,9.19-31.81,27.59h62.46c-1.28-18.4-11.5-27.59-30.66-27.59Z"></path>
        <path class="cls-1" d="M2219.91,396.88h-31.81v-123.4h79.18v28.36h-47.37v95.04Z"></path>
      </g>
    </g>
  </g>
</svg>