<?xml version="1.0" encoding="UTF-8"?>
<svg id="Layer_2" data-name="Layer 2" xmlns="http://www.w3.org/2000/svg" viewBox="0 0 1841.85 691.97">
  <defs>
    
  </defs>
  <g id="Layer_1-2" data-name="Layer 1">
    <g>
      <path class="cls-1" d="M335.31.41c18.11-2.47,29.18,6.58,43.25,15.87,63.14,41.73,120.62,101.61,166.12,161.8,78.69,104.11,125.52,224.63,138.05,355.1,1.61,16.81,5.83,49.47-2.66,63.59-7.75,12.89-32.61,24.16-46.25,30.91-175.77,87.06-405.96,84.45-582.07-.28C25.36,614.72-.57,606.49,0,572.56c.59-34.66,5.89-70.5,12.04-104.54,29.14-161.2,122.29-310.35,246.3-415.42,14.19-12.02,60.83-49.99,76.96-52.19M111.6,287.86c61.5-29.57,136.53-39.74,203.14-22.4,56.69,14.76,104.12,54.57,157.19,78.48,40.25,18.14,91.58,32.42,135.7,21.88.9-.22,1.76-.22,2.09-1.31,1.12-3.75-22.71-54.34-26.36-61.56-31.4-62.33-73.07-120.26-121.18-170.68-35.49-37.18-75.21-70.67-119.68-96.67-21.05,11.12-40.83,25.16-59.38,40.11-60.42,48.7-115.23,114.05-154.59,180.88-5.99,10.17-12.05,20.55-16.93,31.28M641.53,484.86c-1.34-11.84-3.54-23.64-6.03-35.28-1.59-7.48-3.67-19.79-6.18-26.53-.35-.95-.5-2.27-1.63-2.59-65.47,17.26-131.9,1.82-189.27-31.28-45.79-26.41-85.16-63.62-136.01-81.19-76.06-26.29-150.67-8.39-217.4,32.13l-13.68,34.55.42,1.25c49.22-22.45,102.53-33.04,156.44-23.08,71.83,13.27,126.03,64.08,188.96,97.03,57.1,29.89,127.88,51.3,192.94,42.52,10.67-1.44,21.25-4.17,31.45-7.54M652.4,577.92l-1.53-27.13-1.25-1.95c-94.42,24.52-191.37-.8-273.58-48.65-49.97-29.07-95.61-68.92-150.81-88.22-39.46-13.8-82.53-17.48-123.07-6.45-6.93,1.89-43.22,14.33-45.79,18.78l-9.35,35.96c-.39,1.74.79,1.31,1.99,1.13,15.34-2.21,30.3-6.88,46.21-8.31,124.52-11.23,191.25,79.12,289.74,132.11,44.58,23.99,93.99,41.52,144.68,46.6,43.3-11.95,83.96-31.63,122.74-53.88M380.8,656.06c-28.41-11.66-54.9-28.6-79.93-46.29-57.76-40.82-111.95-96.24-185.61-105.41-25.37-3.16-50.46-2.02-74.98,5.32l-.7.98c-2.06,22.35-5.91,44.71-4.97,67.23,100.34,57.94,217.12,84.44,333.23,79.88l12.96-1.7Z"></path>
      <g>
        <path class="cls-1" d="M1115.36,474.73h-49.56l-19.94-60.95h-98.56l-18.8,60.95h-48.99l83.18-257.5h64.94l87.73,257.5ZM995.72,259.39l-34.75,110.52h70.64l-35.89-110.52Z"></path>
        <path class="cls-1" d="M1290.77,328.33l-92.86,107.1h93.43v39.31h-149.83v-37.6l93.43-106.53h-93.43v-39.31h149.26v37.03Z"></path>
        <path class="cls-1" d="M1494.67,364.21c0,11.78-.77,22.22-2.28,31.33h-129.32c7.98,27.35,31.52,41.02,70.64,41.02,14.81,0,28.67-1.71,41.59-5.13l5.7,37.03c-13.67,4.17-30.96,6.27-51.84,6.27-35.7,0-63.24-8.73-82.61-26.21-19.37-17.47-29.05-42.53-29.05-75.2,0-28.86,7.98-51.85,23.93-68.93,15.95-17.09,38.35-25.64,67.22-25.64,27.35,0,48.51,7.97,63.52,23.92,15,15.95,22.5,36.46,22.5,61.53ZM1408.64,316.93c-27.35,0-43.11,13.67-47.28,41.01h92.86c-1.9-27.35-17.09-41.01-45.57-41.01Z"></path>
        <path class="cls-1" d="M1697.99,364.21c0,11.78-.77,22.22-2.28,31.33h-129.32c7.98,27.35,31.52,41.02,70.64,41.02,14.81,0,28.67-1.71,41.59-5.13l5.7,37.03c-13.67,4.17-30.96,6.27-51.84,6.27-35.7,0-63.24-8.73-82.61-26.21-19.37-17.47-29.05-42.53-29.05-75.2,0-28.86,7.98-51.85,23.93-68.93,15.95-17.09,38.35-25.64,67.22-25.64,27.35,0,48.51,7.97,63.52,23.92,15,15.95,22.5,36.46,22.5,61.53ZM1611.97,316.93c-27.35,0-43.11,13.67-47.28,41.01h92.86c-1.9-27.35-17.09-41.01-45.57-41.01Z"></path>
        <path class="cls-1" d="M1771.43,474.73h-47.28v-183.44h117.71v42.16h-70.43v141.28Z"></path>
      </g>
    </g>
  </g>
</svg>