<?xml version="1.0" encoding="UTF-8"?>
<svg id="Layer_2" data-name="Layer 2" xmlns="http://www.w3.org/2000/svg" viewBox="0 0 1908.17 867.2">
  <defs>
    
  </defs>
  <g id="Layer_1-2" data-name="Layer 1">
    <g>
      <path class="cls-1" d="M1469.67.51c22.7-3.09,36.57,8.25,54.2,19.89,79.13,52.29,151.16,127.34,208.19,202.77,98.62,130.47,157.31,281.51,173,445.02,2.02,21.07,7.31,61.99-3.34,79.69-9.71,16.15-40.87,30.28-57.96,38.74-220.28,109.1-508.76,105.83-729.47-.35-33.06-15.9-65.56-26.22-64.83-68.74.74-43.44,7.38-88.36,15.09-131.01,36.52-202.02,153.25-388.93,308.67-520.62,17.78-15.07,76.24-62.64,96.45-65.41M1189.3,360.76c77.07-37.06,171.11-49.81,254.57-28.08,71.04,18.49,130.49,68.39,196.99,98.35,50.45,22.73,114.77,40.63,170.07,27.42,1.13-.27,2.21-.28,2.62-1.65,1.4-4.7-28.47-68.1-33.03-77.15-39.35-78.11-91.58-150.72-151.87-213.9-44.48-46.6-94.25-88.56-149.99-121.15-26.38,13.94-51.18,31.53-74.42,50.26-75.72,61.03-144.41,142.93-193.74,226.68-7.51,12.75-15.1,25.76-21.21,39.2M1853.43,607.63c-1.68-14.84-4.43-29.63-7.56-44.22-1.99-9.38-4.6-24.8-7.74-33.25-.44-1.19-.63-2.84-2.05-3.25-82.05,21.64-165.3,2.28-237.2-39.2-57.39-33.09-106.72-79.73-170.46-101.75-95.33-32.94-188.82-10.51-272.45,40.27l-17.15,43.31.52,1.57c61.69-28.14,128.5-41.41,196.06-28.92,90.01,16.63,157.95,80.3,236.81,121.6,71.55,37.46,160.26,64.29,241.79,53.29,13.38-1.81,26.63-5.22,39.41-9.45M1867.06,724.26l-1.92-34-1.56-2.44c-118.33,30.73-239.83-1.01-342.85-60.96-62.62-36.43-119.82-86.37-188.99-110.56-49.45-17.29-103.43-21.91-154.23-8.09-8.68,2.36-54.17,17.96-57.39,23.53l-11.72,45.07c-.49,2.18.99,1.64,2.49,1.42,19.22-2.76,37.97-8.62,57.92-10.42,156.05-14.07,239.68,99.15,363.11,165.57,55.87,30.06,117.8,52.03,181.32,58.39,54.26-14.98,105.22-39.64,153.82-67.52M1526.67,822.19c-35.61-14.61-68.8-35.85-100.17-58.01-72.39-51.15-140.3-120.6-232.61-132.11-31.79-3.96-63.24-2.54-93.97,6.67l-.88,1.22c-2.58,28.01-7.4,56.03-6.22,84.26,125.74,72.62,272.1,105.82,417.62,100.11l16.24-2.14Z"></path>
      <g>
        <path class="cls-1" d="M679.62,412.6v121.54H119.99v53.83c0,38.17-9.39,67.48-28.16,87.8-18.71,20.38-46.12,30.51-82.16,30.51l-9.67-43.35h4.84c26.43,0,45.6-6.33,57.58-19,11.92-12.67,17.91-32.76,17.91-60.28v-92.87h559.63v-78.19h39.67Z"></path>
        <path class="cls-1" d="M353.48,584.48c4.1-4.28,9.19-6.43,15.26-6.43s11.25,2.14,15.53,6.43c4.28,4.28,6.43,9.46,6.43,15.53s-2.14,11.25-6.43,15.53c-4.28,4.28-9.46,6.43-15.53,6.43s-11.16-2.14-15.26-6.43c-4.11-4.28-6.16-9.46-6.16-15.53s2.05-11.25,6.16-15.53Z"></path>
        <path class="cls-1" d="M412.65,584.48c4.28-4.28,9.45-6.43,15.53-6.43s11.16,2.14,15.26,6.43c4.1,4.28,6.16,9.46,6.16,15.53s-2.06,11.25-6.16,15.53c-4.11,4.28-9.2,6.43-15.26,6.43s-11.25-2.14-15.53-6.43c-4.28-4.28-6.43-9.46-6.43-15.53s2.14-11.25,6.43-15.53Z"></path>
        <path class="cls-1" d="M689.78,706.32l-9.64-43.38h4.82c26.42,0,45.61-6.34,57.57-19.01,11.96-12.68,17.94-32.76,17.94-60.25v-171.1h39.63v175.39c0,38.2-9.37,67.48-28.12,87.83-18.74,20.35-46.15,30.53-82.2,30.53ZM780.28,371.34c-6.79,0-12.41-2.32-16.87-6.96-4.47-4.64-6.69-10.18-6.69-16.6s2.23-11.86,6.69-16.33c4.46-4.46,10.08-6.69,16.87-6.69s12.32,2.23,16.6,6.69c4.28,4.47,6.43,9.91,6.43,16.33s-2.23,11.96-6.69,16.6c-4.47,4.64-9.91,6.96-16.33,6.96Z"></path>
        <path class="cls-1" d="M873.06,208.54l31.6,15-6.43,23.56h-73.9l5.36-23.56h39.09l-4.82-2.14c-18.93-8.57-28.38-19.09-28.38-31.59,0-19.28,13.2-28.92,39.63-28.92h21.42l-5.89,23.56h-13.39c-12.85,0-19.28,3.22-19.28,9.64,0,4.64,5,9.46,15,14.46ZM881.09,534.14h-39.63v-267.77h39.63v267.77Z"></path>
      </g>
    </g>
  </g>
</svg>