<?xml version="1.0" encoding="UTF-8"?>
<svg id="Layer_2" data-name="Layer 2" xmlns="http://www.w3.org/2000/svg" viewBox="0 0 1607.39 730.5">
  <defs>
    
  </defs>
  <g id="Layer_1-2" data-name="Layer 1">
    <g>
      <path class="cls-1" d="M1238.01.43c19.12-2.6,30.81,6.95,45.66,16.76,66.66,44.05,127.33,107.26,175.37,170.81,83.08,109.9,132.51,237.14,145.73,374.87,1.7,17.75,6.15,52.22-2.81,67.13-8.18,13.61-34.42,25.5-48.82,32.63-185.55,91.91-428.56,89.15-614.48-.29-27.85-13.4-55.23-22.09-54.61-57.9.62-36.59,6.22-74.43,12.71-110.36,30.76-170.18,129.1-327.63,260.01-438.55,14.98-12.69,64.22-52.77,81.25-55.1M1001.84,303.89c64.92-31.22,144.14-41.96,214.45-23.65,59.85,15.58,109.92,57.61,165.94,82.85,42.5,19.15,96.68,34.22,143.26,23.1.95-.23,1.86-.24,2.21-1.39,1.18-3.96-23.98-57.36-27.82-64.99-33.15-65.8-77.14-126.96-127.93-180.19-37.47-39.26-79.4-74.6-126.35-102.05-22.23,11.74-43.11,26.56-62.69,42.34-63.78,51.41-121.65,120.4-163.2,190.95-6.33,10.74-12.72,21.7-17.87,33.02M1561.28,511.85c-1.42-12.5-3.73-24.96-6.36-37.25-1.68-7.9-3.87-20.89-6.52-28.01-.37-1-.53-2.39-1.73-2.74-69.11,18.23-139.24,1.92-199.81-33.02-48.34-27.88-89.9-67.16-143.59-85.71-80.3-27.75-159.06-8.86-229.5,33.92l-14.45,36.48.44,1.32c51.97-23.7,108.24-34.88,165.16-24.36,75.83,14.01,133.05,67.64,199.48,102.43,60.28,31.56,135,54.16,203.68,44.89,11.27-1.52,22.44-4.4,33.2-7.96M1572.75,610.1l-1.62-28.64-1.32-2.05c-99.68,25.89-202.03-.85-288.81-51.35-52.75-30.69-100.94-72.76-159.2-93.13-41.66-14.56-87.13-18.45-129.92-6.81-7.31,1.99-45.63,15.13-48.34,19.82l-9.87,37.97c-.41,1.84.83,1.38,2.1,1.2,16.19-2.33,31.99-7.26,48.79-8.78,131.45-11.85,201.9,83.52,305.88,139.47,47.06,25.32,99.23,43.83,152.74,49.19,45.71-12.62,88.64-33.39,129.57-56.88M1286.03,692.59c-30-12.31-57.96-30.2-84.38-48.87-60.98-43.09-118.19-101.59-195.95-111.28-26.78-3.33-53.27-2.14-79.16,5.62l-.74,1.03c-2.17,23.59-6.24,47.2-5.24,70.98,105.92,61.17,229.21,89.14,351.79,84.33l13.68-1.8Z"></path>
      <g>
        <g>
          <path class="cls-1" d="M572.49,212.05v102.38H101.08v45.35c0,32.16-7.91,56.84-23.72,73.96-15.76,17.17-38.85,25.7-69.21,25.7L0,422.92h4.08c22.26,0,38.41-5.33,48.5-16,10.04-10.67,15.08-27.6,15.08-50.78v-78.23h471.42v-65.86h33.42Z"></path>
          <path class="cls-1" d="M297.76,356.83c3.45-3.61,7.74-5.41,12.86-5.41s9.47,1.8,13.08,5.41c3.61,3.61,5.41,7.97,5.41,13.08s-1.8,9.47-5.41,13.08c-3.61,3.61-7.97,5.41-13.08,5.41s-9.4-1.8-12.86-5.41c-3.46-3.61-5.19-7.97-5.19-13.08s1.73-9.47,5.19-13.08Z"></path>
          <path class="cls-1" d="M347.61,356.83c3.61-3.61,7.96-5.41,13.08-5.41s9.4,1.8,12.86,5.41c3.46,3.61,5.19,7.97,5.19,13.08s-1.73,9.47-5.19,13.08c-3.46,3.61-7.75,5.41-12.86,5.41s-9.47-1.8-13.08-5.41c-3.61-3.61-5.41-7.97-5.41-13.08s1.8-9.47,5.41-13.08Z"></path>
          <path class="cls-1" d="M581.05,459.47l-8.12-36.54h4.06c22.25,0,38.42-5.34,48.5-16.01,10.07-10.68,15.11-27.6,15.11-50.75v-144.13h33.38v147.74c0,32.18-7.9,56.84-23.68,73.99-15.79,17.14-38.87,25.71-69.25,25.71ZM657.28,177.29c-5.72,0-10.45-1.95-14.21-5.86-3.76-3.91-5.64-8.57-5.64-13.99s1.88-9.99,5.64-13.76c3.76-3.76,8.49-5.64,14.21-5.64s10.37,1.88,13.98,5.64c3.61,3.77,5.41,8.35,5.41,13.76s-1.88,10.08-5.64,13.99c-3.77,3.91-8.35,5.86-13.76,5.86Z"></path>
          <path class="cls-1" d="M735.44,40.15l26.62,12.63-5.41,19.85h-62.25l4.51-19.85h32.93l-4.06-1.8c-15.94-7.22-23.91-16.08-23.91-26.61C703.86,8.12,714.99,0,737.25,0h18.05l-4.96,19.85h-11.28c-10.83,0-16.24,2.71-16.24,8.12,0,3.91,4.21,7.97,12.63,12.18ZM742.21,314.43h-33.38V88.87h33.38v225.56Z"></path>
        </g>
        <g>
          <path class="cls-1" d="M186.77,718.74h-39.25l-15.79-48.27H53.69l-14.89,48.27H0l65.86-203.9h51.43l69.47,203.9ZM92.04,548.22l-27.52,87.52h55.94l-28.42-87.52Z"></path>
          <path class="cls-1" d="M325.67,602.8l-73.53,84.81h73.98v31.13h-118.64v-29.77l73.98-84.36h-73.98v-31.13h118.19v29.32Z"></path>
          <path class="cls-1" d="M487.13,631.22c0,9.33-.61,17.6-1.8,24.81h-102.4c6.32,21.65,24.96,32.48,55.94,32.48,11.73,0,22.7-1.35,32.93-4.06l4.51,29.32c-10.83,3.31-24.52,4.96-41.05,4.96-28.27,0-50.07-6.92-65.41-20.75-15.34-13.83-23.01-33.68-23.01-59.55,0-22.85,6.32-41.05,18.95-54.59,12.63-13.53,30.37-20.3,53.23-20.3,21.65,0,38.42,6.31,50.3,18.95,11.88,12.63,17.82,28.87,17.82,48.72ZM419.01,593.78c-21.65,0-34.14,10.82-37.44,32.48h73.53c-1.51-21.65-13.53-32.48-36.09-32.48Z"></path>
          <path class="cls-1" d="M648.14,631.22c0,9.33-.61,17.6-1.8,24.81h-102.4c6.32,21.65,24.96,32.48,55.94,32.48,11.73,0,22.7-1.35,32.93-4.06l4.51,29.32c-10.83,3.31-24.52,4.96-41.05,4.96-28.27,0-50.07-6.92-65.41-20.75-15.34-13.83-23.01-33.68-23.01-59.55,0-22.85,6.32-41.05,18.95-54.59,12.63-13.53,30.37-20.3,53.23-20.3,21.65,0,38.42,6.31,50.3,18.95,11.88,12.63,17.82,28.87,17.82,48.72ZM580.02,593.78c-21.65,0-34.14,10.82-37.44,32.48h73.53c-1.51-21.65-13.53-32.48-36.09-32.48Z"></path>
          <path class="cls-1" d="M706.29,718.74h-37.44v-145.26h93.21v33.38h-55.77v111.88Z"></path>
        </g>
      </g>
    </g>
  </g>
</svg>